<mxfile host="app.diagrams.net" modified="2023-10-20T11:59:10.068Z" agent="Mozilla/5.0 (Macintosh; Intel Mac OS X 10_15_7) AppleWebKit/537.36 (KHTML, like Gecko) Chrome/118.0.0.0 Safari/537.36" etag="iqZF5YGbhUh3tHXDcAIu" version="22.0.5" type="github" pages="2">
  <diagram id="2TB86WZQGdXiov2JS4WS" name="Setup">
    <mxGraphModel dx="1242" dy="821" grid="1" gridSize="10" guides="1" tooltips="1" connect="1" arrows="1" fold="1" page="1" pageScale="1" pageWidth="1169" pageHeight="827" math="0" shadow="0">
      <root>
        <mxCell id="0" />
        <mxCell id="1" parent="0" />
      </root>
    </mxGraphModel>
  </diagram>
  <diagram name="On Change" id="2YBvvXClWsGukQMizWep">
    <mxGraphModel dx="1242" dy="821" grid="1" gridSize="10" guides="1" tooltips="1" connect="1" arrows="1" fold="1" page="1" pageScale="1" pageWidth="850" pageHeight="1100" math="0" shadow="0">
      <root>
        <mxCell id="0" />
        <mxCell id="1" parent="0" />
        <UserObject label="Build&lt;br&gt;Workflow(s)" tags="Workflow" id="FHP0eQv9WTITVZ7bon9y-3">
          <mxCell style="rounded=1;whiteSpace=wrap;html=1;absoluteArcSize=1;arcSize=14;strokeWidth=2;" parent="1" vertex="1">
            <mxGeometry x="440" y="40" width="120" height="80" as="geometry" />
          </mxCell>
        </UserObject>
        <mxCell id="Bcy2xKgc8cYnieYZXgsV-2" value="Set new SHA in status" style="edgeStyle=orthogonalEdgeStyle;rounded=0;orthogonalLoop=1;jettySize=auto;html=1;entryX=0.5;entryY=0;entryDx=0;entryDy=0;" edge="1" parent="1" source="FHP0eQv9WTITVZ7bon9y-4" target="Bcy2xKgc8cYnieYZXgsV-1">
          <mxGeometry relative="1" as="geometry" />
        </mxCell>
        <UserObject label="AppCommitHandler" tags="Webhook" id="FHP0eQv9WTITVZ7bon9y-4">
          <mxCell style="rounded=1;whiteSpace=wrap;html=1;absoluteArcSize=1;arcSize=14;strokeWidth=2;" parent="1" vertex="1">
            <mxGeometry x="200" y="240" width="120" height="80" as="geometry" />
          </mxCell>
        </UserObject>
        <mxCell id="FHP0eQv9WTITVZ7bon9y-23" value="Webhook" style="edgeStyle=orthogonalEdgeStyle;rounded=0;orthogonalLoop=1;jettySize=auto;html=1;entryX=0.5;entryY=0;entryDx=0;entryDy=0;" parent="1" source="FHP0eQv9WTITVZ7bon9y-6" target="FHP0eQv9WTITVZ7bon9y-4" edge="1">
          <mxGeometry relative="1" as="geometry" />
        </mxCell>
        <mxCell id="FHP0eQv9WTITVZ7bon9y-24" value="Trigger" style="edgeStyle=orthogonalEdgeStyle;rounded=0;orthogonalLoop=1;jettySize=auto;html=1;entryX=0;entryY=0.5;entryDx=0;entryDy=0;" parent="1" source="FHP0eQv9WTITVZ7bon9y-6" target="FHP0eQv9WTITVZ7bon9y-3" edge="1">
          <mxGeometry relative="1" as="geometry" />
        </mxCell>
        <UserObject label="Application&lt;br&gt;Repository" tags="Repository" id="FHP0eQv9WTITVZ7bon9y-6">
          <mxCell style="strokeWidth=2;html=1;shape=mxgraph.flowchart.database;whiteSpace=wrap;spacingTop=12;" parent="1" vertex="1">
            <mxGeometry x="200" y="40" width="120" height="80" as="geometry" />
          </mxCell>
        </UserObject>
        <mxCell id="FHP0eQv9WTITVZ7bon9y-27" value="Commit&lt;br&gt;Event" style="edgeStyle=orthogonalEdgeStyle;rounded=0;orthogonalLoop=1;jettySize=auto;html=1;entryX=0.5;entryY=1;entryDx=0;entryDy=0;" parent="1" source="FHP0eQv9WTITVZ7bon9y-8" target="FHP0eQv9WTITVZ7bon9y-26" edge="1">
          <mxGeometry relative="1" as="geometry" />
        </mxCell>
        <mxCell id="FHP0eQv9WTITVZ7bon9y-8" value="&lt;br&gt;Delivery&lt;br&gt;Repo" style="strokeWidth=2;html=1;shape=mxgraph.flowchart.database;whiteSpace=wrap;" parent="1" vertex="1">
          <mxGeometry x="220" y="650" width="80" height="90" as="geometry" />
        </mxCell>
        <mxCell id="FHP0eQv9WTITVZ7bon9y-9" value="Developer" style="shape=umlActor;verticalLabelPosition=bottom;verticalAlign=top;html=1;outlineConnect=0;" parent="1" vertex="1">
          <mxGeometry x="40" y="40" width="40" height="80" as="geometry" />
        </mxCell>
        <UserObject label="&lt;br&gt;GHCR" tags="Registry" id="FHP0eQv9WTITVZ7bon9y-14">
          <mxCell style="strokeWidth=2;html=1;shape=mxgraph.flowchart.database;whiteSpace=wrap;" parent="1" vertex="1">
            <mxGeometry x="680" y="40" width="80" height="80" as="geometry" />
          </mxCell>
        </UserObject>
        <mxCell id="FHP0eQv9WTITVZ7bon9y-26" value="DeliveryCommitAnalyzer&lt;br&gt;(webhook)" style="rounded=1;whiteSpace=wrap;html=1;absoluteArcSize=1;arcSize=14;strokeWidth=2;direction=west;" parent="1" vertex="1">
          <mxGeometry x="560" y="740" width="160" height="50" as="geometry" />
        </mxCell>
        <mxCell id="ATKwstre9XeDdN67ooxD-1" value="Commit" style="edgeStyle=orthogonalEdgeStyle;rounded=0;orthogonalLoop=1;jettySize=auto;html=1;entryX=0;entryY=0.5;entryDx=0;entryDy=0;entryPerimeter=0;" edge="1" parent="1" source="FHP0eQv9WTITVZ7bon9y-9" target="FHP0eQv9WTITVZ7bon9y-6">
          <mxGeometry relative="1" as="geometry" />
        </mxCell>
        <mxCell id="ATKwstre9XeDdN67ooxD-2" value="Store" style="edgeStyle=orthogonalEdgeStyle;rounded=0;orthogonalLoop=1;jettySize=auto;html=1;entryX=0;entryY=0.5;entryDx=0;entryDy=0;entryPerimeter=0;" edge="1" parent="1" source="FHP0eQv9WTITVZ7bon9y-3" target="FHP0eQv9WTITVZ7bon9y-14">
          <mxGeometry relative="1" as="geometry" />
        </mxCell>
        <mxCell id="Bcy2xKgc8cYnieYZXgsV-1" value="App Source&lt;br&gt;CRD" style="shape=parallelogram;html=1;strokeWidth=2;perimeter=parallelogramPerimeter;whiteSpace=wrap;rounded=1;arcSize=12;size=0.23;" vertex="1" parent="1">
          <mxGeometry x="200" y="440" width="120" height="80" as="geometry" />
        </mxCell>
        <mxCell id="Bcy2xKgc8cYnieYZXgsV-4" value="Get Latest SHA" style="edgeStyle=orthogonalEdgeStyle;rounded=0;orthogonalLoop=1;jettySize=auto;html=1;entryX=1;entryY=0.5;entryDx=0;entryDy=0;" edge="1" parent="1" source="Bcy2xKgc8cYnieYZXgsV-3" target="Bcy2xKgc8cYnieYZXgsV-1">
          <mxGeometry relative="1" as="geometry" />
        </mxCell>
        <UserObject label="App Source&lt;br&gt;Controller" tags="Webhook" id="Bcy2xKgc8cYnieYZXgsV-3">
          <mxCell style="rounded=1;whiteSpace=wrap;html=1;absoluteArcSize=1;arcSize=14;strokeWidth=2;" vertex="1" parent="1">
            <mxGeometry x="440" y="440" width="120" height="80" as="geometry" />
          </mxCell>
        </UserObject>
        <mxCell id="Bcy2xKgc8cYnieYZXgsV-5" value="Clone" style="edgeStyle=orthogonalEdgeStyle;rounded=0;orthogonalLoop=1;jettySize=auto;html=1;entryX=0.742;entryY=0.95;entryDx=0;entryDy=0;entryPerimeter=0;exitX=0.5;exitY=0;exitDx=0;exitDy=0;" edge="1" parent="1" source="Bcy2xKgc8cYnieYZXgsV-3" target="FHP0eQv9WTITVZ7bon9y-6">
          <mxGeometry relative="1" as="geometry">
            <Array as="points">
              <mxPoint x="500" y="160" />
              <mxPoint x="289" y="160" />
            </Array>
          </mxGeometry>
        </mxCell>
      </root>
    </mxGraphModel>
  </diagram>
</mxfile>
